<?xml version="1.0" encoding="UTF-8" standalone="no"?>
<!-- Created with Inkscape (http://www.inkscape.org/) -->

<svg
   width="215mm"
   height="215mm"
   viewBox="0 0 214.99999 215"
   version="1.1"
   id="svg1"
   xml:space="preserve"
   inkscape:version="1.4.2 (f4327f4, 2025-05-13)"
   sodipodi:docname="icon2.svg"
   xmlns:inkscape="http://www.inkscape.org/namespaces/inkscape"
   xmlns:sodipodi="http://sodipodi.sourceforge.net/DTD/sodipodi-0.dtd"
   xmlns="http://www.w3.org/2000/svg"
   xmlns:svg="http://www.w3.org/2000/svg"><sodipodi:namedview
     id="namedview1"
     pagecolor="#ffffff"
     bordercolor="#999999"
     borderopacity="1"
     inkscape:showpageshadow="2"
     inkscape:pageopacity="0"
     inkscape:pagecheckerboard="0"
     inkscape:deskcolor="#d1d1d1"
     inkscape:document-units="mm"
     inkscape:zoom="0.80844907"
     inkscape:cx="275.83679"
     inkscape:cy="740.30637"
     inkscape:window-width="3840"
     inkscape:window-height="2054"
     inkscape:window-x="2869"
     inkscape:window-y="-11"
     inkscape:window-maximized="1"
     inkscape:current-layer="layer1" /><defs
     id="defs1" /><g
     inkscape:label="Layer 1"
     inkscape:groupmode="layer"
     id="layer1"
     transform="translate(2.5804723,-47.714037)"><g
       id="g12"
       style="fill:#939e9f;fill-opacity:1"
       transform="translate(0,11.641668)"><path
         style="fill:#939e9f;fill-opacity:1;stroke-width:0.264583"
         d="M 102.6,107.67273 95.563636,251.34545 H 117.49091 L 110.94545,108 Z"
         id="path1" /><path
         style="fill:#939e9f;fill-opacity:1;stroke-width:0.264583"
         d="m 145.63636,127.30909 -35.18182,36 0.49091,15.38182 41.72728,-46.47273 z"
         id="path2" /><path
         style="fill:#939e9f;fill-opacity:1;stroke-width:0.264583"
         d="m 159.70909,172.14545 -47.45455,31.09091 0.32728,12.92727 50.72727,-36.65454 z"
         id="path3" /><path
         style="fill:#939e9f;fill-opacity:1;stroke-width:0.264583"
         d="m 68.563635,124.2 34.527275,29.78182 0.16363,13.90909 -39.763632,-38.45455 z"
         id="path4" /><path
         style="fill:#939e9f;fill-opacity:1;stroke-width:0.264583"
         d="m 53.345455,173.29091 47.127275,27 -0.490912,11.94545 -49.418182,-31.74545 z"
         id="path5" /></g><path
       style="fill:#117b83;fill-opacity:1;stroke-width:0.285994"
       d="m 212.40663,157.19777 c -39.6722,-9.08954 -69.2154,10.59675 -53.89098,32.43714 20.58862,29.34298 54.24206,-9.6242 53.89098,-32.43714 z"
       id="path7"
       sodipodi:nodetypes="csc" /><path
       style="fill:#2e7d32;fill-opacity:1;stroke-width:0.300092"
       d="m -2.5804723,155.21841 c 3.44939683,29.59914 39.0326463,65.26989 57.1873683,33.3939 18.438666,-32.37453 -35.03861,-41.74238 -57.1873683,-33.3939 z"
       id="path8"
       sodipodi:nodetypes="csc" /><path
       style="fill:#e65100;fill-opacity:1;stroke-width:0.295524"
       d="M 21.650378,89.863891 C 19.454613,126.1944 44.728126,164.03784 68.859327,140.61702 95.015932,115.23041 45.07187,88.585936 21.650378,89.863891 Z"
       id="path9"
       sodipodi:nodetypes="csc" /><path
       style="fill:#6a1b9a;fill-opacity:1;stroke-width:0.283254"
       d="m 106.71219,59.355711 c -21.755259,15.218182 -35.326001,63.578839 -0.56264,64.963699 40.3028,1.60553 20.62998,-51.054608 0.56264,-64.963699 z"
       id="path10"
       sodipodi:nodetypes="csc" /><path
       style="fill:#c2185b;fill-opacity:1;stroke-width:0.273531"
       d="m 190.04302,93.83165 c -25.5751,0.167851 -68.37076,26.85611 -43.47766,49.18021 24.8931,22.32409 48.76317,-21.48484 43.47766,-49.18021 z"
       id="path11"
       sodipodi:nodetypes="csc" /></g></svg>
